<!-- by TradingView --><svg width="18" height="18" viewBox="0 0 18 18" xmlns="http://www.w3.org/2000/svg"><path fill="#000A3E" d="M0 0h18v18H0z"/><path fill-rule="evenodd" d="m8.92 7.88-.1.08a564.93 564.93 0 0 1-.64.83c-.12.1-.2.18-.26.25L6.34 11.1a.32.32 0 0 1-.18.12l-.03.02A118.5 118.5 0 0 1 5 12.67a.97.97 0 0 1-.4.32h-.02l-.02-.01a5.78 5.78 0 0 1-.93-4.55 5.55 5.55 0 0 1 4.59-4.37 5.29 5.29 0 0 1 3.23.53 5.64 5.64 0 0 1 3.05 5.05A5.69 5.69 0 0 1 13.41 13a1.04 1.04 0 0 1-.4-.33c-.45-.58-.93-1.16-1.44-1.74-.2-.24-.38-.39-.65-.5a.16.16 0 0 1-.09-.06l-1.1-2c-.14-.24-.38-.4-.6-.54a.11.11 0 0 0-.12 0 3.4 3.4 0 0 0-.09.06Zm.2-2.94h.3a.01.01 0 0 1 .02.01v.01l-.25.2.09.3a.02.02 0 0 1 0 .02h-.01a.01.01 0 0 1-.01 0L9 5.3a.01.01 0 0 0-.02 0l-.24.18a.01.01 0 0 1-.02 0 .02.02 0 0 1 0-.01l.09-.3v-.01l-.26-.19a.01.01 0 0 1 0-.02h.32a.01.01 0 0 0 .01-.01l.1-.3a.02.02 0 0 1 0-.01H9l.1.3v.01h.01Zm-1.13.1-.29.1-.02-.01-.17-.25h-.03v.32a.02.02 0 0 1-.01.01l-.29.1a.01.01 0 0 0 0 .02l.29.1v.32l.01.01v.01a.01.01 0 0 0 .03 0l.17-.26a.01.01 0 0 1 .02 0l.29.1A.01.01 0 0 0 8 5.6v-.02l-.17-.25V5.3L8 5.06a.02.02 0 0 0 0-.02h-.01Zm2.54.17.28.1a.02.02 0 0 1 .01 0v.02h-.01l-.28.1a.02.02 0 0 0 0 .02v.3a.02.02 0 0 1-.02.01.02.02 0 0 1-.02 0l-.17-.24a.02.02 0 0 0-.02 0c0-.01 0 0 0 0l-.28.08a.02.02 0 0 1-.02 0 .02.02 0 0 1 0-.03l.17-.24a.02.02 0 0 0 0-.02L10 5.07v-.01a.02.02 0 0 1 0-.01.02.02 0 0 1 .01-.01l.28.09a.02.02 0 0 0 .02 0l.18-.25a.02.02 0 0 1 .02 0 .02.02 0 0 1 0 .01l.01.3v.01h.01Zm-3.7.88-.25-.18v-.02l.1-.29-.01-.02a.02.02 0 0 0-.02 0l-.24.19a.02.02 0 0 1-.01 0h-.01l-.24-.19a.02.02 0 0 0-.03 0v.02l.1.3a.02.02 0 0 1-.01.01l-.24.18a.02.02 0 0 0-.01.02.02.02 0 0 0 .02.01h.3a.02.02 0 0 1 .01 0v.01l.09.3a.02.02 0 0 0 .02 0 .02.02 0 0 0 .01 0l.1-.3a.02.02 0 0 1 0-.01h.3a.02.02 0 0 0 .02 0 .02.02 0 0 0 0-.03Zm4.96-.18.25.18v.02a.01.01 0 0 1 0 .01h-.32l-.1.3a.01.01 0 0 1-.01.02h-.01v-.01l-.1-.3-.01-.01h-.31a.01.01 0 0 1-.01 0v-.03l.25-.18v-.02l-.1-.3.01-.01h.02l.25.19h.01l.25-.19h.02v.02l-.1.3.01.01ZM5.86 6.95l-.28-.09v-.32h-.01a.02.02 0 0 0-.02-.01h-.01l-.17.25h-.02l-.28-.09a.02.02 0 0 0-.02 0 .02.02 0 0 0 0 .03l.17.24a.02.02 0 0 1 0 .02l-.17.25v.01a.02.02 0 0 0 0 .01h.02l.28-.09a.02.02 0 0 1 .02 0l.17.25a.02.02 0 0 0 .03 0V7.1h.01l.28-.1h.01v-.02a.02.02 0 0 0 0-.02Zm6.8-.17.28-.1.02.02v.02l-.18.24v.02l.18.25a.02.02 0 0 1 0 .02h-.02l-.28-.09h-.02l-.17.25h-.01a.02.02 0 0 1-.03-.01v-.31l-.29-.1a.02.02 0 0 1 0-.03l.28-.1h.01v-.32a.02.02 0 0 1 .01-.01h.02l.18.25a.02.02 0 0 0 .02 0ZM5.2 8.08h-.3l-.01-.01-.1-.3h-.02l-.1.3a.02.02 0 0 1-.01.01h-.32a.02.02 0 0 0 0 .02l.25.2-.09.3a.02.02 0 0 0 0 .02h.02l.25-.18a.01.01 0 0 1 .02 0l.24.18a.01.01 0 0 0 .03 0V8.6l-.1-.3.25-.2a.02.02 0 0 0 0-.02Zm8.13 0h.31a.02.02 0 0 1 0 .02l-.25.2.1.3v.01l-.01.01a.01.01 0 0 1-.02 0l-.25-.18a.01.01 0 0 0-.01 0l-.25.18a.01.01 0 0 1-.02 0V8.6l.1-.3h-.01l-.25-.2v-.02h.32v-.01l.1-.3a.01.01 0 0 1 .03 0l.1.3v.01ZM4.92 9.36l-.28.1h-.01v-.01l-.18-.25h-.03v.33H4.4l-.28.1a.02.02 0 0 0 0 .03l.28.1a.02.02 0 0 1 .02 0v.31a.02.02 0 0 0 0 .02h.01a.02.02 0 0 0 .01 0l.18-.25h.02l.28.09a.02.02 0 0 0 .01 0h.01V9.9l-.17-.25a.02.02 0 0 1 0-.03l.17-.24a.02.02 0 0 0 0-.02.02.02 0 0 0-.01-.01Zm8.68.17.27.1a.02.02 0 0 1 .01.02l-.01.01-.27.1a.02.02 0 0 0-.02.01v.3a.02.02 0 0 1 0 .01h-.01a.02.02 0 0 1-.02 0l-.17-.24a.02.02 0 0 0-.01 0h-.01l-.28.08h-.02v-.03l.17-.23v-.02l-.17-.25v-.02a.02.02 0 0 1 .03 0l.27.09a.02.02 0 0 0 .02-.01l.17-.24a.02.02 0 0 1 .02 0 .02.02 0 0 1 .01.01v.3a.02.02 0 0 0 .02.01Zm-8.38 1.65L4.98 11l-.01-.01v-.01l.1-.3v-.01h-.03l-.24.18a.02.02 0 0 1-.02 0l-.24-.18H4.5v.02l.1.29a.02.02 0 0 1 0 .02l-.25.18a.02.02 0 0 0-.01.02l.01.01h.32l.1.3a.02.02 0 0 0 0 .02h.02v-.02l.1-.3a.02.02 0 0 1 .01 0h.31l.01-.01a.02.02 0 0 0 0-.02Zm8.19-.18.24.18v.02l-.01.01h-.3a.02.02 0 0 0-.02.01l-.09.29v.01a.02.02 0 0 1-.03 0l-.1-.3v-.01h-.32v-.03l.25-.18a.02.02 0 0 0 0-.02l-.1-.29a.02.02 0 0 1 .02-.02h.02l.24.18h.02l.24-.18h.02v.02l-.1.29v.01h.01V11Z" fill="#fff"/><path d="M10.8 10.9c.03-.03.03-.07.02-.11-.01-.05 0-.07.04-.05.2.08.33.2.48.37.5.57 1 1.19 1.52 1.86.02.02.02.03-.01.03h-1.18c-.02 0-.03-.03-.04-.04a.07.07 0 0 1-.03-.03 5.56 5.56 0 0 0-.75-1.09l-.02-.02-.04-.03h-.03l-.02.02v.06c.16.42.25.68.27.76.02.09.03.17.01.25l-.01.02h-.03a9.37 9.37 0 0 1-1.12-.16.03.03 0 0 0 0 .02l.03.21v.02l-.02.01h-.94a.02.02 0 0 1-.01 0v-.02c-.04-.21-.03-.4.02-.62.08-.3.2-.62.35-.93 0-.02 0-.04-.02-.05a2.9 2.9 0 0 0-.37-.13 1.79 1.79 0 0 0-.39-.03 111.86 111.86 0 0 1-.46-.02l.56-1.32c.04-.1.02-.19-.09-.2a.02.02 0 0 1-.01-.02v-.02l.6-1.44a.02.02 0 0 1 .02 0c.2.1.27.2.4.41a3510.57 3510.57 0 0 1 1.26 2.29.01.01 0 0 0 .01 0Zm-3.76.9a.43.43 0 0 1-.02-.05l.01-.04c.27-.47.47-.8.6-1a1.67 1.67 0 0 1 .29-.36l.1-.11c.15-.18.18-.16.08.05l-.34.75c-.06.13-.04.23.05.31.02.01.02.03.01.04l-.16.4c0 .01-.01.02-.03.02a.84.84 0 0 0-.43.28c-.15.18-.28.35-.38.51-.03.06-.06.06-.1 0v-.02a.16.16 0 0 1-.02-.17 42.94 42.94 0 0 1 .34-.6Z" fill="#fff"/></svg>