<svg width="14" height="14" fill="none" xmlns="http://www.w3.org/2000/svg"><g clip-path="url(#a)"><path d="M7 14.014c3.856 0 6.983-3.135 6.983-7.002S10.856.01 7 .01.017 3.145.017 7.012 3.144 14.014 7 14.014Z" fill="url(#b)"/><path fill-rule="evenodd" clip-rule="evenodd" d="M5.854 5.389c0 .219.175.413.524.582.043.02.071.064.071.111v1.415c0 .03-.028.051-.056.044a7.995 7.995 0 0 1-.695-.196c-.814-.281-1.334-.645-1.56-1.091a1.76 1.76 0 0 1-.185-.814c0-.755.444-1.321 1.333-1.699.057-.025.113-.048.168-.07a.123.123 0 0 0 .08-.114V2.36c0-.221.203-.401.453-.401s.454.18.454.401V3.94a.359.359 0 0 1-.004.053.15.15 0 0 0-.002.021v.702c0 .062-.049.115-.114.137a.729.729 0 0 0-.41.34.369.369 0 0 0-.057.196Zm2.24 3.192c0-.336-.33-.615-.991-.837a.123.123 0 0 1-.085-.116v-1.26a.12.12 0 0 1 .156-.116l.14.043c.455.13.776.237.965.319.766.33 1.277.666 1.532 1.009.19.268.284.566.284.896 0 .625-.326 1.16-.979 1.606a3.21 3.21 0 0 1-.904.436.123.123 0 0 0-.09.118v1.082c0 .222-.203.401-.453.401s-.508-.18-.508-.4v-1.374a.4.4 0 0 1 0-.011V9.4c0-.048.055-.049.115-.05.025 0 .05 0 .073-.005.299-.053.514-.188.647-.404.066-.11.099-.23.099-.36Zm-1.04-5.355v-.792a.463.463 0 1 1 .924 0v.671c0 .067.054.121.12.121h.463l.001-.001h.001c.12 0 .239.02.35.06.111.039.212.097.297.17.085.074.153.16.199.256a.696.696 0 0 1 0 .605.794.794 0 0 1-.199.256.938.938 0 0 1-.297.17c-.106.039-.22.059-.335.06a.004.004 0 0 0-.004.005.004.004 0 0 1-.004.003H7.174a.12.12 0 0 1-.12-.12V3.226Zm-1.55 7.983a.12.12 0 0 0-.12-.12h-.46a.947.947 0 0 1-.644-.258.878.878 0 0 1-.269-.623.85.85 0 0 1 .269-.622.92.92 0 0 1 .644-.258h1.409a.12.12 0 0 1 .12.121v.407a.487.487 0 0 1 .004.067v1.764a.478.478 0 1 1-.954 0v-.478Z" fill="#fff"/></g><defs><linearGradient id="b" x1="0" y1="7" x2="14" y2="7" gradientUnits="userSpaceOnUse"><stop stop-color="#764AF6"/><stop offset="1" stop-color="#B898FF"/></linearGradient><clipPath id="a"><rect width="14" height="14" rx="7" fill="#fff"/></clipPath></defs></svg>