<svg xmlns="http://www.w3.org/2000/svg" width="280" height="280" fill="none"><g clip-path="url(#a)"><path fill="#4281A4" d="M280 140c0 37.59-14.81 71.71-38.92 96.86-.69.72-1.39 1.43-2.09 2.13s-1.37 1.35-2.06 2.02c-4.93 4.73-10.2 9.1-15.77 13.07-2.88 2.06-5.85 4.01-8.9 5.85C191.17 272.67 166.44 280 140 280c-26.44 0-51.1-7.31-72.18-20.03-3.05-1.83-6.03-3.78-8.92-5.85A139.672 139.672 0 0 1 39 236.94C14.84 211.79 0 177.63 0 140c0-37.63 15.67-73.66 41.01-98.99C66.34 15.67 101.34 0 140 0s73.66 15.67 98.99 41.01C264.33 66.34 280 101.34 280 140Z" style="fill:#4281a4;fill:color(display-p3 .2588 .5059 .6431);fill-opacity:1"/><mask id="b" width="280" height="280" x="0" y="0" maskUnits="userSpaceOnUse" style="mask-type:luminance"><path fill="#fff" d="M280 140c0 37.59-14.81 71.71-38.92 96.86-.69.72-1.39 1.43-2.09 2.13s-1.37 1.35-2.06 2.02c-4.93 4.73-10.2 9.1-15.77 13.07-2.88 2.06-5.85 4.01-8.9 5.85C191.17 272.67 166.44 280 140 280c-26.44 0-51.1-7.31-72.18-20.03-3.05-1.83-6.03-3.78-8.92-5.85A139.672 139.672 0 0 1 39 236.94C14.84 211.79 0 177.63 0 140c0-37.63 15.67-73.66 41.01-98.99C66.34 15.67 101.34 0 140 0s73.66 15.67 98.99 41.01C264.33 66.34 280 101.34 280 140Z" style="fill:#fff;fill-opacity:1"/></mask><g stroke="#F6E8D7" stroke-linecap="round" stroke-linejoin="round" stroke-width="6" mask="url(#b)"><path d="M32.69 247.41 245.89 34.2M30.14 30.09l222.401 222.4M140-7.01v314.52M-2.43 95.71l222.4 222.41M-20.27 140h314.53m-154.259 98.23c54.25 0 98.229-43.979 98.229-98.229 0-54.251-43.979-98.23-98.229-98.23-54.251 0-98.23 43.979-98.23 98.23 0 54.25 43.979 98.229 98.23 98.229Z" opacity=".2" style="stroke:#f6e8d7;stroke:color(display-p3 .9647 .9098 .8431);stroke-opacity:1"/><path d="m140.021 238.23-98.22.06 49.14-49.13 49.08 49.07Zm98.26-98.26c0 27.14-10.97 51.69-28.76 69.48l-69.51-69.48V41.71c54.29 0 98.28 44 98.28 98.26h-.01Zm-98.28-98.26c-54.28 0-98.28 43.99-98.28 98.26H140V41.71Z" style="stroke:#f6e8d7;stroke:color(display-p3 .9647 .9098 .8431);stroke-opacity:1"/><path d="m41.72 139.971 98.301 98.26h98.22l.04-.03-98.28-98.23h-98.28Z" style="stroke:#f6e8d7;stroke:color(display-p3 .9647 .9098 .8431);stroke-opacity:1"/></g></g><defs><clipPath id="a"><path fill="#fff" d="M0 0h280v280H0z" style="fill:#fff;fill-opacity:1"/></clipPath></defs></svg>