<!-- by TradingView --><svg width="18" height="18" viewBox="0 0 18 18" xmlns="http://www.w3.org/2000/svg"><path fill="#5B5CF2" d="M0 0h18v18H0z"/><path d="M3.5 9a5.5 5.5 0 1 1 11 0 5.5 5.5 0 0 1-11 0ZM9 3a6 6 0 1 0 0 12A6 6 0 0 0 9 3Zm.7 5.42a2.23 2.23 0 0 1 .86.5l.05.05a1.81 1.81 0 0 0 .17-1.95c-.17-.31-.42-.57-.74-.75A2.07 2.07 0 0 0 9 6H7v1h2c.33 0 .68.22.82.51.14.3.1.65-.12.9Zm-.7.1c-.33 0-.7.06-1 .2v-1.4H7V12h1v-1.6c0-.49.53-.85.99-.86.46.01 1 .38 1.01.85V12h1v-1.6c0-1.04-.98-1.87-2-1.87Z" fill="#fff"/></svg>