<svg width="64" height="64" viewBox="0 0 64 64" fill="none" xmlns="http://www.w3.org/2000/svg">
<path d="M32 64C49.7334 64 64 49.7334 64 32C64 14.2666 49.7334 0 32 0C14.2666 0 0 14.2666 0 32C0 49.7334 14.2666 64 32 64Z" fill="#00ADE6"/>
<path d="M40.8066 37.0694C40.8066 32.4028 38.0066 30.8028 32.4066 30.1363C28.4066 29.6028 27.6066 28.5363 27.6066 26.6694C27.6066 24.8025 28.94 23.6028 31.6066 23.6028C34.0066 23.6028 35.34 24.4028 36.0066 26.4028C36.14 26.8028 36.54 27.0694 36.94 27.0694H39.0731C39.6066 27.0694 40.0066 26.6694 40.0066 26.1363V26.0028C39.4731 23.0694 37.0731 20.8028 34.0066 20.5363V17.3363C34.0066 16.8028 33.6066 16.4028 32.94 16.2694H30.94C30.4066 16.2694 30.0066 16.6694 29.8731 17.3363V20.4028C25.8731 20.9363 23.34 23.6028 23.34 26.9363C23.34 31.3363 26.0066 33.0694 31.6066 33.7363C35.34 34.4029 36.54 35.2029 36.54 37.3363C36.54 39.4697 34.6731 40.9363 32.14 40.9363C28.6731 40.9363 27.4731 39.4694 27.0731 37.4694C26.94 36.9363 26.54 36.6694 26.14 36.6694H23.8731C23.34 36.6694 22.94 37.0694 22.94 37.6028V37.7363C23.4731 41.0694 25.6066 43.4694 30.0066 44.1363V47.3363C30.0066 47.8694 30.4066 48.2694 31.0731 48.4028H33.0731C33.6066 48.4028 34.0066 48.0028 34.14 47.3363V44.1363C38.14 43.4694 40.8066 40.6694 40.8066 37.0694Z" fill="white"/>
<path d="M25.2059 51.0626C14.8059 47.3295 9.47246 35.7295 13.3393 25.4626C15.3393 19.8626 19.7393 15.596 25.2059 13.596C25.7393 13.3295 26.0059 12.9295 26.0059 12.2626V10.396C26.0059 9.86259 25.7393 9.46259 25.2059 9.32947C25.0725 9.32947 24.8059 9.32947 24.6725 9.46259C12.0059 13.4626 5.07246 26.9295 9.07246 39.596C11.4725 47.0626 17.2059 52.796 24.6725 55.196C25.2059 55.4626 25.7393 55.196 25.8725 54.6626C26.0059 54.5295 26.0059 54.396 26.0059 54.1295V52.2626C26.0059 51.8626 25.6059 51.3295 25.2059 51.0626ZM39.3393 9.46259C38.8059 9.19603 38.2725 9.46259 38.1393 9.99603C38.0059 10.1295 38.0059 10.2626 38.0059 10.5295V12.396C38.0059 12.9295 38.4059 13.4626 38.8059 13.7295C49.2059 17.4626 54.5393 29.0626 50.6725 39.3295C48.6725 44.9295 44.2725 49.196 38.8059 51.196C38.2725 51.4626 38.0059 51.8626 38.0059 52.5295V54.396C38.0059 54.9295 38.2725 55.3295 38.8059 55.4626C38.9393 55.4626 39.2059 55.4626 39.3393 55.3295C52.0059 51.3295 58.9393 37.8626 54.9393 25.196C52.5393 17.596 46.6725 11.8626 39.3393 9.46259Z" fill="white"/>
</svg>
