<!-- by TradingView --><svg width="18" height="18" viewBox="0 0 18 18" xmlns="http://www.w3.org/2000/svg"><path fill="#F0F3FA" d="M0 0h18v18H0z"/><path d="M6 9.33v-.66h2.38v.66H6ZM6 11v-.67h2.67V11H6Zm0-3.33V7h2.67v.67H6Z" fill="#04289C"/><path d="M11 11a2 2 0 0 1-1.85-2.79 2.03 2.03 0 0 1 1.06-1.06c.24-.1.5-.15.79-.15.28 0 .55.05.79.15.24.1.45.24.63.42a2.03 2.03 0 0 1 0 2.85A2.02 2.02 0 0 1 11 11Zm0-.67c.79 0 1.33-.63 1.33-1.34A1.3 1.3 0 0 0 11 7.67c-.8 0-1.33.62-1.33 1.32 0 .71.53 1.34 1.33 1.34Z" fill="url(#acoqc5dhr)"/><path d="m13.33 10.36.46-.49c.21.25.45.44.77.46.3.03.84 0 .8-.46-.04-.43-.7-.57-1-.69-.53-.2-.91-.68-.76-1.35a.98.98 0 0 1 .45-.63c.16-.1.34-.16.53-.18a1.46 1.46 0 0 1 1.3.4l.1.1-.47.5a.93.93 0 0 0-.69-.35c-.18 0-.46.02-.57.2-.07.12-.07.34.06.46.21.2.55.26.8.36.46.18.87.49.89 1.1.03.96-.84 1.26-1.55 1.2a1.57 1.57 0 0 1-1.12-.63ZM4.54 11h-.18V7H5v4h-.46ZM2.18 11H2V7h.64v4h-.46Z" fill="#04289C"/><path d="M4.3 11 2 7h.7L5 11h-.7Z" fill="url(#bcoqc5dhr)"/><defs><linearGradient id="acoqc5dhr" x1="12.78" y1="9" x2="9.23" y2="9" gradientUnits="userSpaceOnUse"><stop stop-color="#1950F0"/><stop offset="1" stop-color="#0082FA"/></linearGradient><linearGradient id="bcoqc5dhr" x1="2.08" y1="6.43" x2="4.84" y2="10.32" gradientUnits="userSpaceOnUse"><stop stop-color="#1950F0"/><stop offset="1" stop-color="#0082FA"/></linearGradient></defs></svg>