<svg width="14" height="14" fill="none" xmlns="http://www.w3.org/2000/svg"><g clip-path="url(#a)"><path d="M9.016 6.971c-.37-.277-.888-.552-1.535-.816-.533-.224-.913-.443-1.129-.652-.182-.177-.24-.38-.184-.638.048-.223.182-.371.421-.467.263-.106.618-.11 1.057-.015.15.034.31.091.479.174l.211-.135.207-.133.896-.575.196-.125.194-.125a4.48 4.48 0 0 0-.416-.287 4.509 4.509 0 0 0-1.686-.598V1.425a5.5 5.5 0 0 0-1.43-.003v1.2a2.654 2.654 0 0 0-1.207.618c-.364.331-.608.767-.723 1.295-.314 1.438.408 2.5 2.148 3.154.616.235 1.05.475 1.292.716a.823.823 0 0 1 .216.336 1.552 1.552 0 0 1 .287-.403l.012-.013a1.584 1.584 0 0 1 1.453-.43 2.343 2.343 0 0 0-.76-.921l.001-.003ZM8.427 10.679l-.105-.105a1.585 1.585 0 0 1-.466-1.125l.002-.047a.939.939 0 0 1-.308.17c-.314.109-.67.122-1.058.037a2.683 2.683 0 0 1-.926-.369 2.393 2.393 0 0 1-.173-.127l-.191.123-.191.122-.848.544-.186.12-.185.118c.249.268.524.491.823.665a5.201 5.201 0 0 0 1.683.59v1.185c.23.028.464.045.702.045.238 0 .49-.017.728-.048v-1.19a3.015 3.015 0 0 0 1.015-.391l-.157-.158-.159-.158v-.001Z" fill="#243E90"/><path d="M7.728 1.423v1.154a4.534 4.534 0 0 1 1.686.598c.15.091.288.187.417.287l-.195.125-.195.126-.897.575-.207.132-.21.136a2.184 2.184 0 0 0-.48-.174c-.439-.096-.794-.091-1.056.014-.24.097-.374.246-.422.468-.056.258.002.46.185.637.215.21.595.429 1.128.652.648.265 1.165.54 1.536.817.351.264.606.574.76.921a1.706 1.706 0 0 0-.504-.024 1.58 1.58 0 0 0-.95.455l-.012.013a1.587 1.587 0 0 0-.287.402.815.815 0 0 0-.216-.336c-.241-.24-.676-.481-1.292-.715C4.778 7.03 4.056 5.969 4.37 4.53c.115-.528.358-.963.722-1.294.333-.304.74-.51 1.207-.62V1.419A5.636 5.636 0 0 0 1.375 7a5.632 5.632 0 0 0 4.924 5.58v-1.183a5.166 5.166 0 0 1-1.683-.591 3.568 3.568 0 0 1-.823-.665l.185-.119.186-.12.847-.543.191-.122.192-.123c.057.046.114.089.172.127.243.163.555.287.926.369.389.084.745.072 1.058-.038a.94.94 0 0 0 .309-.169c0 .016-.003.03-.003.047a1.664 1.664 0 0 0 .062.436c.073.257.21.494.405.689l.105.105.158.158.158.158c-.3.186-.64.318-1.015.391v1.19a5.576 5.576 0 0 0 2.406-.908l.052-.036-.988-.988-.154-.153-.153-.154-.066-.066a1.023 1.023 0 0 1 1.447-1.447l1.361 1.361c.012-.017.025-.034.036-.052A5.59 5.59 0 0 0 12.627 7 5.632 5.632 0 0 0 7.73 1.423h-.002Z" fill="#fff"/><path d="M12.618 11.172A6.961 6.961 0 0 0 14.001 7C14 3.14 10.86 0 7 0S0 3.14 0 7s3.14 7 7 7a6.965 6.965 0 0 0 4.172-1.382l.926.926a1.02 1.02 0 0 0 1.447 0c.4-.4.4-1.047 0-1.446l-.926-.926h-.001ZM6.298 1.42c.23-.029.464-.045.702-.045A5.632 5.632 0 0 1 12.626 7a5.591 5.591 0 0 1-.957 3.135l-.036.052-1.36-1.361a1.016 1.016 0 0 0-.555-.284 1.017 1.017 0 0 0-.893.285c-.4.399-.4 1.047 0 1.446l.066.066.153.153.154.154.988.988-.052.036A5.587 5.587 0 0 1 7 12.626 5.632 5.632 0 0 1 1.374 7a5.633 5.633 0 0 1 4.925-5.58Z" fill="#243E90"/></g><defs><clipPath id="a"><path fill="#fff" d="M0 0h14v14H0z"/></clipPath></defs></svg>