<!-- by TradingView --><svg xmlns="http://www.w3.org/2000/svg" width="56" height="56"><path fill="#DA261D" d="M0 0h56v56H0z"/><path d="M28 40c11.08-.02 20-5.4 20-11.99 0-6.64-8.92-12-20-12.01-11.04 0-20 5.4-20 12.04 0 6.6 8.96 11.97 20 11.96zm0-22c10.3 0 19 4.6 19 10 0 5.35-8.7 9.98-19 10-10.25 0-19-4.64-19-10 0-5.4 8.75-10 19-10zm12.85 6H34v8h2v-6h3.34l.66.72V30h-2v2h4v-6.58L40.84 24zM27 27h2.67l.33-.4V24h2v4.21l-.86.79H29v3h-2v-5zm-1.5-3h-2v4.15l.95.85H26v-2l-.5-.35V24zm-4.63 0L22 25.26v2.3l-.58.47.58.5v2.68l-1.23.79H17v-2h3v-1.5h-4V32h-2v-8h6.88zM20 26h-4v1.5h4V26z" fill="#fff"/></svg>