<!-- by TradingView --><svg width="18" height="18" xmlns="http://www.w3.org/2000/svg"><path fill="#64A8F0" d="M0 0h18v18H0z"/><path d="M12 2v2.26h-.784c-.277-1.11-.877-1.943-1.707-1.982-.554-.04-.877.238-1.154.634-.276.476-.415 1.468-.415 2.657 0 1.11.046 1.944.185 2.539.092.277.323.714.922.714.323 0 .554-.08.693-.238.23-.238.276-.714.276-1.032v-1.07c0-.397-.138-.635-.369-.754-.184-.08-.461-.08-.6-.119v-.278H12v5.672h-.692c-.138-.437-.23-.754-.461-1.11-.23-.358-.646-.754-1.338-.754-.738-.04-1.292.357-1.292.952 0 .793.554.991 1.569 1.467.969.476 2.214.873 2.214 2.26C12 15.169 10.662 16 9.14 16H6v-2.736h1.017c.416 2.062 1.43 2.419 2.123 2.419.876 0 1.291-.476 1.291-1.15-.046-.873-.738-1.19-1.706-1.627-1.384-.674-2.03-.991-2.03-2.101.046-.952.922-1.547 1.891-1.785-2.03-.198-2.63-1.785-2.584-3.49C6.002 3.824 7.156 2 9.416 2H12z" fill="#fff"/></svg>