<!-- by TradingView --><svg width="18" height="18" viewBox="0 0 18 18" xmlns="http://www.w3.org/2000/svg"><path fill="url(#atuegfgcf)" d="M0 0h18v18H0z"/><path d="m6.72 7.24.87-.61 1.38-2.7V3L6.72 7.24ZM4 12.93l1.53-3.2-.13 1.3-.7 1.44-.7.46Zm10 0-1.53-3.2.13 1.3.7 1.44.7.46Zm-.75-.4H4.72l-.65.47h9.86l-.68-.47Zm-2.82-5.9.87.61L9.04 3v.94l1.39 2.69ZM9 8v3h.67V9.03l.55 1.97h.47l.64-1.97V11H12V8h-.97l-.57 1.6-.43-1.6H9ZM6.77 8H6l1 1.7V11h.58V9.7l.9-1.7h-.73l-.48 1.03L6.77 8Z" fill="#fff"/><defs><linearGradient id="atuegfgcf" x1="3.35" y1="3.12" x2="21.9" y2="24.43" gradientUnits="userSpaceOnUse"><stop stop-color="#1A1E21"/><stop offset="1" stop-color="#06060A"/></linearGradient></defs></svg>