<svg width="280" height="289" viewBox="0 0 280 289" fill="none" xmlns="http://www.w3.org/2000/svg">
<rect x="10" y="14" width="260" height="260" rx="130" fill="#E8E8E8"/>
<path d="M240 144C240 199.228 195.228 244 140 244C84.7715 244 40 199.228 40 144C40 88.7715 84.7715 44 140 44C195.228 44 240 88.7715 240 144Z" fill="black"/>
<path d="M133.4 81.8112C137.484 79.4532 142.516 79.4532 146.6 81.8112L190.558 107.19C194.642 109.548 197.157 113.906 197.157 118.622V169.38C197.157 174.096 194.642 178.453 190.558 180.811L146.6 206.19C142.516 208.548 137.484 208.548 133.4 206.19L89.4424 180.811C85.3583 178.453 82.8427 174.096 82.8427 169.38V118.622C82.8427 113.906 85.3583 109.548 89.4424 107.19L133.4 81.8112Z" fill="#E8E8E8"/>
<path d="M143.333 57.3886C143.333 61.0682 141.843 64.0511 140.003 64.0511C138.163 64.0511 136.67 61.0682 136.67 57.3886C136.67 53.709 138.163 50.7261 140.003 50.7261C141.843 50.7261 143.333 53.709 143.333 57.3886Z" fill="#D9D9D9"/>
<path d="M216.676 103.58C213.489 105.419 210.161 105.619 209.241 104.026C208.322 102.433 210.16 99.6496 213.346 97.8098C216.533 95.97 219.861 95.7702 220.781 97.3635C221.701 98.9568 219.863 101.74 216.676 103.58Z" fill="#D9D9D9"/>
<path d="M213.346 190.192C210.16 188.352 208.322 185.569 209.241 183.976C210.161 182.382 213.489 182.582 216.676 184.422C219.863 186.262 221.701 189.045 220.781 190.638C219.861 192.232 216.533 192.032 213.346 190.192Z" fill="#D9D9D9"/>
<path d="M136.67 230.613C136.67 226.934 138.163 223.951 140.003 223.951C141.843 223.951 143.333 226.934 143.333 230.613C143.333 234.293 141.843 237.276 140.003 237.276C138.163 237.276 136.67 234.293 136.67 230.613Z" fill="#D9D9D9"/>
<path d="M63.3272 184.422C66.5139 182.582 69.845 182.382 70.7649 183.976C71.6848 185.569 69.8468 188.352 66.6602 190.192C63.4735 192.032 60.1424 192.232 59.2225 190.638C58.3026 189.045 60.1406 186.262 63.3272 184.422Z" fill="#D9D9D9"/>
<path d="M66.6602 97.8098C69.8468 99.6496 71.6848 102.433 70.7649 104.026C69.845 105.619 66.5139 105.419 63.3272 103.58C60.1406 101.74 58.3026 98.9568 59.2225 97.3635C60.1424 95.7702 63.4735 95.97 66.6602 97.8098Z" fill="#D9D9D9"/>
<path d="M260 144C260 210.274 206.274 264 140 264C73.7258 264 20 210.274 20 144C20 77.7258 73.7258 24 140 24C206.274 24 260 77.7258 260 144Z" stroke="black" stroke-width="4" stroke-linecap="round" stroke-dasharray="20 20"/>
</svg>
