<?xml version="1.0" encoding="UTF-8"?>
<svg id="Layer_1" data-name="Layer 1" xmlns="http://www.w3.org/2000/svg" xmlns:xlink="http://www.w3.org/1999/xlink" viewBox="0 0 1000 1000">
  <defs>
    <style>
      .cls-1 {
        stroke: #fffcf5;
        stroke-width: 32.08px;
      }

      .cls-1, .cls-2 {
        fill: none;
      }

      .cls-3 {
        fill: #fffcf5;
      }

      .cls-4 {
        fill: url(#linear-gradient);
      }

      .cls-5 {
        fill: #fff;
      }

      .cls-2 {
        stroke: #000;
        stroke-miterlimit: 10;
        stroke-width: 60px;
      }
    </style>
    <linearGradient id="linear-gradient" x1="117.59" y1="2497.09" x2="890.68" y2="2505.67" gradientTransform="translate(0 3001.29) scale(1 -1)" gradientUnits="userSpaceOnUse">
      <stop offset="0" stop-color="#7a8fd9"/>
      <stop offset="1" stop-color="#ac62e4"/>
    </linearGradient>
  </defs>
  <g>
    <circle class="cls-4" cx="496.15" cy="500" r="378.58"/>
    <circle class="cls-1" cx="500" cy="500" r="385"/>
    <path class="cls-3" d="M495.86,353.23c-15.23-.19-29.51,2.28-42.83,7.42-13.13,4.95-23.89,11.8-32.27,20.56-8.38,8.76-12.56,18.94-12.56,30.55,0,14.28,3.9,25.13,11.71,32.55,7.81,7.42,18.27,12.95,31.41,16.56,13.32,3.43,28.17,6.57,44.54,9.42,26.27,4.19,50.54,11.14,72.81,20.84,22.46,9.71,40.45,22.65,53.97,38.83,13.71,15.99,20.56,35.69,20.56,59.11,0,21.51-5.71,40.64-17.13,57.39-11.42,16.56-26.74,29.98-45.97,40.26-19.04,10.09-40.07,16.47-63.1,19.13v57.97h-41.97v-57.97c-19.23-1.9-37.5-6.47-54.82-13.71-17.13-7.23-32.08-16.85-44.83-28.84-12.75-11.99-21.99-25.89-27.7-41.69l55.68-20.84c3.24,9.14,9.42,17.32,18.56,24.56,9.33,7.04,20.37,12.56,33.12,16.56,12.95,4,26.56,6,40.83,6,15.23,0,29.51-2.47,42.83-7.42,13.52-4.95,24.37-11.8,32.55-20.56,8.38-8.76,12.56-19.04,12.56-30.84s-4.38-22.18-13.13-29.98c-8.57-7.81-19.61-13.99-33.12-18.56-13.32-4.57-27.22-8-41.69-10.28-27.98-4.57-53.11-11.23-75.38-19.99-22.08-8.76-39.6-21.03-52.54-36.83-12.75-15.8-19.13-36.36-19.13-61.68,0-21.51,5.71-40.64,17.13-57.39,11.42-16.75,26.65-30.17,45.69-40.26,19.23-10.28,40.36-16.66,63.39-19.13v-58.82h41.97v58.82c18.66,1.9,36.55,6.47,53.68,13.71,17.32,7.23,32.46,16.85,45.4,28.84,12.95,11.8,22.37,25.89,28.27,42.26l-56.25,20.27c-3.24-9.33-9.42-17.42-18.56-24.27-9.14-7.04-20.18-12.56-33.12-16.56-12.75-4-26.27-6-40.55-6Z"/>
  </g>
  <circle class="cls-2" cx="500" cy="500" r="470"/>
  <circle class="cls-5" cx="722" cy="766" r="173"/>
  <path d="M743,747.68v-93.35h-53.33c-36.82,0-66.67,29.85-66.67,66.67s29.85,66.67,66.67,66.67h13.34v-40h40-.01Z"/>
  <path d="M756.34,747.68h-13.34v40h-40v93.35h53.33c36.82,0,66.67-29.85,66.67-66.67s-29.85-66.67-66.67-66.67h.01Z"/>
</svg>